<?xml version="1.0" encoding="UTF-8" standalone="no"?>
<!-- Generator: Adobe Illustrator 12.0.0, SVG Export Plug-In . SVG Version: 6.00 Build 51448)  -->
<svg xmlns:dc="http://purl.org/dc/elements/1.1/" xmlns:cc="http://creativecommons.org/ns#" xmlns:rdf="http://www.w3.org/1999/02/22-rdf-syntax-ns#" xmlns:svg="http://www.w3.org/2000/svg" xmlns="http://www.w3.org/2000/svg" xmlns:sodipodi="http://sodipodi.sourceforge.net/DTD/sodipodi-0.dtd" xmlns:inkscape="http://www.inkscape.org/namespaces/inkscape" version="1.1" id="Layer_1" width="227.521" height="85.789" viewBox="0 0 227.521 85.789" overflow="visible" enable-background="new 0 0 227.521 85.789" xml:space="preserve" sodipodi:version="0.32" inkscape:version="0.46" sodipodi:docname="5,30.svg" inkscape:output_extension="org.inkscape.output.svg.inkscape"><metadata id="metadata8076"><rdf:RDF><cc:Work rdf:about=""><dc:format>image/svg+xml</dc:format><dc:type rdf:resource="http://purl.org/dc/dcmitype/StillImage"/></cc:Work></rdf:RDF></metadata><defs id="defs8074"><inkscape:perspective sodipodi:type="inkscape:persp3d" inkscape:vp_x="0 : 42.894501 : 1" inkscape:vp_y="0 : 1000 : 0" inkscape:vp_z="227.521 : 42.894501 : 1" inkscape:persp3d-origin="113.7605 : 28.596334 : 1" id="perspective8078"/>
	
	
	
	
</defs><sodipodi:namedview inkscape:window-height="480" inkscape:window-width="640" inkscape:pageshadow="2" inkscape:pageopacity="0.0" guidetolerance="10.0" gridtolerance="10.0" objecttolerance="10.0" borderopacity="1.0" bordercolor="#666666" pagecolor="#ffffff" id="base" showgrid="false"/>
<path fill="#FFFF00" stroke="#000000" stroke-width="0.75" d="M227.146,76.808c0,4.753-3.854,8.606-8.606,8.606H8.981  c-4.753,0-8.606-3.854-8.606-8.606V8.981c0-4.753,3.853-8.606,8.606-8.606H218.54c4.753,0,8.606,3.853,8.606,8.606V76.808z" id="path8059"/>
<path fill="none" stroke="#000000" stroke-width="0.75" d="M218.645,71.757c0,4.044-3.566,7.325-7.962,7.325H16.839  c-4.396,0-7.959-3.281-7.959-7.325V14.033c0-4.045,3.563-7.324,7.959-7.324h193.844c4.396,0,7.962,3.279,7.962,7.324V71.757z" id="path8061"/>
<path style="fill:#ff0000" id="path8065" d="M 43.694,74.247 L 40.764,70.48 L 45.297,66.784 L 66.78,66.784 L 69.71,70.48 L 65.176,74.247 L 43.694,74.247 z M 55.272,37.838 L 50.738,41.605 L 47.879,37.838 L 51.646,20.121 L 56.11,16.494 L 59.04,20.19 L 55.272,37.838 z M 54.784,46.557 L 51.925,42.86 L 56.389,39.093 L 72.71,39.093 L 75.709,42.86 L 71.105,46.557 L 54.784,46.557 z M 60.712,18.936 L 57.713,15.169 L 62.177,11.542 L 83.73,11.542 L 86.729,15.238 L 82.196,18.935 L 60.712,18.935 L 60.712,18.936 z M 79.545,47.812 L 75.778,65.529 L 71.244,69.225 L 68.314,65.529 L 72.081,47.812 L 76.615,44.116 L 79.545,47.812 z"/><path style="fill:#ff0000" id="path8067" d="M 95.151,55.136 L 94.802,56.949 L 89.013,61.692 L 85.316,56.949 L 85.666,55.136 L 91.455,50.393 L 95.151,55.136 z M 100.522,30.025 L 100.103,31.838 L 94.384,36.65 L 90.617,31.838 L 91.035,30.025 L 96.755,25.282 L 100.522,30.025 z"/><path style="fill:#ff0000" id="path8069" d="M 104.419,74.247 L 101.489,70.48 L 106.023,66.784 L 127.296,66.784 L 130.226,70.48 L 125.693,74.247 L 104.419,74.247 z M 115.301,46.557 L 112.441,42.86 L 116.904,39.093 L 133.226,39.093 L 136.224,42.86 L 131.62,46.557 L 115.301,46.557 z M 116.207,18.936 L 113.207,15.169 L 117.672,11.542 L 139.016,11.542 L 142.014,15.238 L 137.481,18.935 L 116.207,18.935 L 116.207,18.936 z M 140.062,47.812 L 136.294,65.529 L 131.761,69.225 L 128.831,65.529 L 132.597,47.812 L 137.132,44.116 L 140.062,47.812 z M 138.457,20.19 L 142.99,16.494 L 145.92,20.19 L 142.154,37.767 L 137.689,41.534 L 134.691,37.767 L 138.457,20.19 z"/><path style="fill:#ff0000" id="path8071" d="M 155.18,47.812 L 151.413,65.529 L 146.88,69.225 L 144.02,65.529 L 147.787,47.812 L 152.251,44.116 L 155.18,47.812 z M 150.925,74.247 L 147.996,70.48 L 152.529,66.784 L 168.781,66.784 L 171.711,70.48 L 167.177,74.247 L 150.925,74.247 z M 157.272,37.838 L 152.738,41.605 L 149.879,37.838 L 153.646,20.121 L 158.11,16.494 L 161.04,20.19 L 157.272,37.838 z M 162.713,18.936 L 159.714,15.169 L 164.178,11.542 L 180.499,11.542 L 183.498,15.238 L 178.965,18.935 L 162.713,18.935 L 162.713,18.936 z M 181.546,47.812 L 177.779,65.529 L 173.245,69.225 L 170.315,65.529 L 174.082,47.812 L 178.616,44.116 L 181.546,47.812 z M 179.941,20.19 L 184.474,16.494 L 187.404,20.19 L 183.637,37.767 L 179.173,41.534 L 176.174,37.767 L 179.941,20.19 z"/>
</svg>